<?xml version="1.0" encoding="UTF-8" standalone="no"?>
<!-- Created with Inkscape (http://www.inkscape.org/) -->

<svg
   xmlns:dc="http://purl.org/dc/elements/1.1/"
   xmlns:cc="http://creativecommons.org/ns#"
   xmlns:rdf="http://www.w3.org/1999/02/22-rdf-syntax-ns#"
   xmlns:svg="http://www.w3.org/2000/svg"
   xmlns="http://www.w3.org/2000/svg"
   xmlns:sodipodi="http://sodipodi.sourceforge.net/DTD/sodipodi-0.dtd"
   xmlns:inkscape="http://www.inkscape.org/namespaces/inkscape"
   width="49.680885mm"
   height="55.635918mm"
   viewBox="0 0 49.680885 55.635918"
   version="1.1"
   id="svg1751"
   inkscape:version="0.92.3 (2405546, 2018-03-11)"
   sodipodi:docname="IRAPL.svg">
  <defs
     id="defs1745" />
  <sodipodi:namedview
     id="base"
     pagecolor="#ffffff"
     bordercolor="#666666"
     borderopacity="1.0"
     inkscape:pageopacity="0.0"
     inkscape:pageshadow="2"
     inkscape:zoom="0.35"
     inkscape:cx="-296.11486"
     inkscape:cy="7.9958826"
     inkscape:document-units="mm"
     inkscape:current-layer="layer1"
     showgrid="false"
     inkscape:window-width="1600"
     inkscape:window-height="837"
     inkscape:window-x="0"
     inkscape:window-y="30"
     inkscape:window-maximized="1" />
  <metadata
     id="metadata1748">
    <rdf:RDF>
      <cc:Work
         rdf:about="">
        <dc:format>image/svg+xml</dc:format>
        <dc:type
           rdf:resource="http://purl.org/dc/dcmitype/StillImage" />
        <dc:title></dc:title>
      </cc:Work>
    </rdf:RDF>
  </metadata>
  <g
     inkscape:label="Layer 1"
     inkscape:groupmode="layer"
     id="layer1"
     transform="translate(-67.385748,-95.312993)">
    <g
       id="g1739"
       transform="matrix(0.26458333,0,0,0.26458333,26.049967,90.411775)">
      <path
         style="fill:#ec2142"
         d="M 158.67184,228.33851 C 158.30233,227.969 158,227.06667 158,226.33333 158,225.23177 174.17889,225 251.07332,225 c 88.10297,0 93.05533,0.0934 92.73635,1.75 -0.31759,1.64934 -5.63245,1.76468 -92.40148,2.00518 -50.63548,0.14034 -92.36683,-0.0472 -92.73635,-0.41667 z M 165,221.71023 c -3.23197,-1.62929 -3.80092,-5.21122 -1.06068,-6.67775 C 165.7377,214.07001 166,212.97945 166,206.46482 V 199 l -2,2 c -2.36916,2.36916 -5.27262,2.58137 -6.9909,0.51096 -1.6484,-1.9862 -0.54794,-7.55546 2.0423,-10.33576 1.86942,-2.00658 2.983,-2.1752 14.36511,-2.1752 9.36688,0 12.61896,0.33781 13.50265,1.4026 0.99678,1.20104 1.59417,1.18803 4.15712,-0.0905 2.11279,-1.054 4.67398,-1.32594 8.70839,-0.92465 6.95089,0.69139 7.1879,0.69137 14.87374,-0.001 6.8011,-0.6127 10.34159,0.59457 10.34159,3.52635 0,1.0133 -0.69098,2.41583 -1.53552,3.11674 -1.21733,1.01029 -1.47635,3.15964 -1.25,10.37244 0.26161,8.33624 0.45299,9.09808 2.28552,9.09808 2.46471,0 7.75434,-10.26819 9.53022,-18.5 1.49278,-6.91955 2.38924,-8 6.63768,-8 4.83435,0 7.58044,3.16941 13.52088,15.60519 2.77026,5.79929 5.66107,10.7837 6.42403,11.07647 2.45794,0.9432 1.65522,5.26594 -1.17791,6.34309 -3.35013,1.27372 -11.58602,1.24849 -14.99057,-0.0459 -2.3145,-0.87998 -2.60349,-1.43304 -2.0901,-4 C 242.9097,215.2015 242.74638,215 239.93982,215 c -2.78442,0 -2.92256,0.16373 -1.84188,2.183 0.99957,1.86771 0.82957,2.45728 -1.17711,4.08219 -1.8675,1.51221 -3.37193,1.78819 -7.38312,1.35443 -6.72604,-0.72735 -6.25189,-0.72708 -12.77576,-0.007 -4.1751,0.46073 -6.35417,0.2411 -8,-0.80633 -1.88688,-1.20084 -2.6765,-1.22365 -4.76195,-0.13758 -3.17753,1.6548 -9.75823,1.67589 -13,0.0417 -2.91583,-1.46992 -3.89893,-5.42805 -1.57014,-6.32169 1.28085,-0.49151 1.54877,-2.28709 1.45414,-9.74553 -0.0638,-5.02865 -0.33723,-8.24301 -0.60761,-7.14301 -1.13941,4.63546 -5.02372,5.94362 -8.44765,2.84501 -1.75631,-1.58961 -1.82874,-1.3562 -1.82874,5.89283 0,5.78685 0.34999,7.68231 1.5,8.12361 2.57366,0.9876 1.84318,5.55739 -1.0651,6.66312 -3.5998,1.36864 -12.45396,1.18822 -15.4349,-0.31452 z m 14.58138,-2.84191 c 0.38468,-0.62242 -0.0388,-1.54478 -0.94098,-2.04969 -2.44763,-1.36976 -2.43022,-20.57832 0.0195,-21.51836 1.09999,-0.42211 2.37758,0.2631 3.78756,2.03138 1.17022,1.46759 2.67327,2.66835 3.3401,2.66835 1.48399,0 1.5844,-3.43646 0.17726,-6.06574 C 185.03423,192.19544 183.77693,192 173.52152,192 c -10.6552,0 -11.51085,0.14668 -12.96482,2.22251 -1.77821,2.53875 -2.0634,5.77749 -0.50873,5.77749 0.57638,0 2.08047,-1.20036 3.34241,-2.66746 1.57195,-1.8275 2.84588,-2.45586 4.0456,-1.99548 1.54089,0.59129 1.7099,1.88076 1.40759,10.73899 -0.2928,8.57948 -0.61988,10.22147 -2.21355,11.11231 -1.50854,0.84326 -1.60518,1.21305 -0.5,1.91316 2.01368,1.27563 12.63263,1.09153 13.45136,-0.2332 z m 22.79924,0.53912 c 1.3881,-0.53267 1.38943,-0.82875 0.0131,-2.92923 -0.84208,-1.28516 -1.38766,-3.79635 -1.21241,-5.58042 0.24842,-2.52889 0.93416,-3.44755 3.11155,-4.16842 1.5361,-0.50855 3.8986,-0.64713 5.25,-0.30796 2.06423,0.51809 2.45709,1.21762 2.45709,4.37514 0,2.06714 -0.66853,4.7129 -1.48563,5.87947 -1.32238,1.88797 -1.3134,2.18712 0.0818,2.72251 2.26526,0.86926 8.68346,0.71064 10.20117,-0.25211 1.03622,-0.65732 0.9859,-1.08143 -0.25,-2.10714 -2.14537,-1.78049 -2.20965,-18.64868 -0.0826,-21.68541 C 222.42599,192.55372 221.60633,192 215.5,192 c -6.01671,0 -7.10233,0.67695 -4.93185,3.07531 0.95478,1.05502 1.44668,3.05107 1.25218,5.08115 -0.30465,3.17991 -0.53571,3.35895 -4.72122,3.65841 -2.84393,0.20348 -4.69587,-0.15031 -5.23469,-1 -1.3427,-2.1174 -0.98898,-6.4666 0.63558,-7.81487 2.64269,-2.19323 1.62858,-3.00038 -3.75,-2.98469 -6.35557,0.0185 -8.57384,1.05607 -6.29733,2.94541 2.16996,1.8009 2.2077,18.65145 0.0487,21.73389 -1.15459,1.6484 -1.21198,2.25532 -0.25,2.64356 1.79075,0.72272 8.31021,0.7673 10.12927,0.0693 z M 235,219 c 0,-0.55 -0.45,-1 -1,-1 -0.55,0 -1,-0.90965 -1,-2.02144 0,-4.88434 13.12714,-5.10037 13.81955,-0.22743 0.17575,1.23688 -0.1883,2.24887 -0.80902,2.24887 -0.62071,0 -0.85045,0.45 -0.51053,1 0.77406,1.25246 12.17944,1.3277 12.94721,0.0854 0.31089,-0.50302 0.16418,-1.06552 -0.32602,-1.25 -0.4902,-0.18448 -3.45633,-5.51041 -6.5914,-11.83541 -6.80293,-13.7249 -7.01014,-14 -10.54525,-14 -2.82978,0 -3.98454,1.49289 -3.98454,5.15131 0,3.17937 -6.16606,17.10565 -8.69229,19.63189 -1.26924,1.26924 -2.30771,2.51225 -2.30771,2.76225 0,0.25 2.025,0.45455 4.5,0.45455 2.475,0 4.5,-0.45 4.5,-1 z m 1,-10.95295 C 236,204.90436 238.18564,201 239.94491,201 c 1.99484,0 5.4371,5.56212 4.6736,7.55178 C 244.26052,209.48468 242.62829,210 240.03138,210 236.69904,210 236,209.66136 236,208.04705 Z M 241,206 c 0,-0.55 -0.45,-1 -1,-1 -0.55,0 -1,0.45 -1,1 0,0.55 0.45,1 1,1 0.55,0 1,-0.45 1,-1 z m -32,5.808 c 0,-2.48427 -0.35335,-2.89692 -2.25,-2.62755 -2.6015,0.36947 -3.59125,4.10098 -1.69409,6.38692 C 206.78635,217.65242 209,215.54244 209,211.808 Z m 0,-12.68556 c 0,-2.66024 -2.31062,-4.41182 -3.82379,-2.89865 C 203.04355,198.35645 203.77625,201 206.5,201 c 1.77899,0 2.5,-0.5415 2.5,-1.87756 z m 59.24781,23.17154 c -1.23871,-0.23851 -2.76111,-1.38458 -3.38312,-2.54681 -0.94281,-1.76166 -0.77611,-2.40048 1.00219,-3.84046 1.63943,-1.32753 2.13312,-2.8343 2.13312,-6.51041 0,-4.48532 -0.34242,-5.11476 -5.5,-10.11028 -5.89063,-5.70553 -6.62591,-7.61309 -3.56574,-9.25084 2.87899,-1.54078 15.32416,-1.29792 17.56803,0.34283 1.55755,1.13891 2.11277,1.14979 3.19987,0.0627 1.12849,-1.12849 15.684,-1.37716 31.79784,-0.54324 0.55,0.0285 4.41008,-0.20709 8.57796,-0.52347 6.26957,-0.4759 7.86665,-0.28653 9.25,1.09683 2.07614,2.07614 2.15375,4.4071 0.17204,5.16755 -1.18602,0.45512 -1.5,2.54177 -1.5,9.96862 0,5.16615 0.4132,9.39301 0.91821,9.39301 2.24839,0 4.30495,-1.45676 5.13364,-3.63638 1.02179,-2.6875 4.07106,-3.12537 5.95517,-0.85516 1.64503,1.98214 0.61333,8.32883 -1.72502,10.61173 -1.59327,1.55551 -3.15878,1.66082 -14.782,0.9944 -7.15,-0.40994 -14.04179,-0.37843 -15.3151,0.07 -8.14474,2.86859 -18.93959,-1.28707 -14.60444,-5.62222 1.15909,-1.1591 1.4307,-3.58365 1.20751,-10.77894 -0.2646,-8.52994 -0.45673,-9.30758 -2.36714,-9.58062 -1.40819,-0.20127 -3.42514,1.16305 -6.25,4.22765 -3.57689,3.88047 -4.17083,5.15139 -4.17083,8.92472 0,2.69107 0.58257,4.88339 1.5,5.64479 2.45665,2.03884 1.86987,5.90888 -1.0651,7.02475 -2.54143,0.96625 -9.8471,1.10489 -14.18709,0.26923 z m 13.25693,-3.30165 c 0.34253,-0.55422 -0.12918,-1.75963 -1.04825,-2.67869 -1.30484,-1.30485 -1.57596,-2.98519 -1.23723,-7.66808 0.42106,-5.82119 0.60339,-6.15491 6.21759,-11.3806 l 5.78381,-5.38355 -4.86033,0.30929 c -4.43302,0.28211 -4.83194,0.51236 -4.53737,2.61893 0.6566,4.69562 -4.69734,7.16214 -6.84318,3.1526 -0.59982,-1.12078 -0.81032,-2.92078 -0.46779,-4 C 275.09333,192.13059 274.63114,192 267.56739,192 263.40532,192 260,192.13515 260,192.30032 c 0,0.16518 2.475,2.85562 5.5,5.97876 5.31692,5.48942 5.5,5.86223 5.5,11.19968 0,4.12953 -0.48863,6.00987 -1.93852,7.45976 -1.76182,1.76182 -1.7846,1.97912 -0.25,2.384 3.34622,0.88283 12.08405,0.65553 12.69326,-0.33019 z m 26.29259,0.15409 c 1.03622,-0.65732 0.9859,-1.08143 -0.25,-2.10714 -2.16191,-1.79423 -2.24013,-20.20363 -0.0949,-22.3488 2.06825,-2.06825 0.93181,-2.69264 -4.86905,-2.67517 -6.20109,0.0187 -8.39001,1.07032 -6.13066,2.94541 1.2135,1.00712 1.54733,3.51033 1.54733,11.60271 0,5.91074 -0.43414,10.58685 -1.01631,10.94665 -0.55897,0.34546 -0.75742,1.04702 -0.44098,1.55902 0.70902,1.14722 9.47309,1.20743 11.25462,0.0773 z m 29.16749,-1.08068 c 0.56935,-1.06384 1.03294,-2.97634 1.03021,-4.25 l -0.005,-2.31574 -2.24504,2.66382 c -2.73673,3.24724 -5.98555,4.31301 -8.70726,2.8564 C 325.18783,216.03016 325,214.97047 325,205.52383 c 0,-5.85851 0.437,-10.67587 1,-11.02383 2.46412,-1.52291 0.533,-2.5 -4.94098,-2.5 -5.77395,0 -8.7856,1.40022 -5.6224,2.61405 1.28472,0.493 1.56338,2.53098 1.56338,11.43392 0,6.14398 -0.4329,11.10154 -1,11.45203 -2.84482,1.75819 -0.0364,2.5 9.46482,2.5 9.3228,0 10.57778,-0.21108 11.5,-1.93426 z m -22.82441,-11.72928 c -0.16881,-9.04197 -0.88052,-11.0339 -3.57319,-10.00063 -2.42364,0.93004 -2.26689,17.42676 0.18278,19.23661 2.83157,2.09199 3.56462,0.0951 3.39041,-9.23598 z M 279,195.5 c 0,-0.825 -0.45,-1.5 -1,-1.5 -0.55,0 -1,0.675 -1,1.5 0,0.825 0.45,1.5 1,1.5 0.55,0 1,-0.675 1,-1.5 z M 158,184.60699 c 0,-0.76616 0.7118,-1.66616 1.58179,-2 C 160.45177,182.27314 173.37986,182 188.31088,182 h 27.1473 l -7.82342,-4.57965 c -15.06071,-8.8162 -29.25291,-24.90918 -35.88268,-40.6885 C 152.33738,90.523463 176.0571,38.358215 224,21.82637 c 9.17048,-3.162197 10.05498,-3.276701 25.5,-3.301097 13.69667,-0.02163 17.12275,0.300134 23.79918,2.235159 23.77029,6.889326 43.86796,24.15211 54.21179,46.564914 C 346.30834,108.05512 330.38193,156.49235 291,178.36673 l -6.5,3.61038 28.16821,0.0114 c 15.49252,0.006 28.88002,0.28459 29.75,0.61844 0.86999,0.33384 1.58179,1.23384 1.58179,2 0,1.18069 -14.17456,1.39301 -93,1.39301 -78.82544,0 -93,-0.21232 -93,-1.39301 z M 247.78498,171.75 247.5,161.5 l -4.38586,-0.31414 c -2.41223,-0.17277 -4.77973,0.0797 -5.26113,0.56113 -1.88168,1.88168 6.1607,20.25301 8.86611,20.25301 1.06514,0 1.29057,-2.16793 1.06586,-10.25 z m 11.05702,3.09704 c 1.8381,-3.65912 3.4131,-8.15912 3.5,-10 L 262.5,161.5 257.25,161.19774 252,160.89548 v 10.62558 c 0,9.57611 0.17285,10.59365 1.75,10.30226 1.0003,-0.18481 3.18171,-3.17344 5.092,-6.97628 z M 237.99747,179.25 c -0.001,-0.4125 -1.26575,-4.34901 -2.80968,-8.7478 -2.9539,-8.41593 -3.95878,-9.30017 -8.57467,-7.54521 l -2.72933,1.03769 1.79854,3.04469 C 228.06875,171.07927 235.91202,180 237.07755,180 c 0.50735,0 0.92131,-0.3375 0.91992,-0.75 z m 28.56285,-2 C 269.83625,174.25311 276,165.71962 276,164.18112 c 0,-0.90854 -6.82424,-2.69021 -7.54468,-1.96977 C 268.06615,162.60052 262,178.91101 262,179.56822 c 0,1.11345 1.82106,0.18772 4.56032,-2.31822 z m -42.80388,-5.72919 c -3.4755,-5.29044 -4.75016,-6.48301 -6.94742,-6.5 -3.78142,-0.0292 -4.4158,1.7044 -1.68669,4.60941 2.53221,2.6954 10.70539,8.36978 12.05555,8.36978 0.45925,0 -1.0804,-2.91564 -3.42144,-6.47919 z m 53.27105,4.83139 c 5.24039,-3.49245 10.98623,-9.72508 9.71174,-10.53453 -3.21333,-2.04082 -5.60233,-0.76084 -9.65139,5.17102 -2.24831,3.29378 -4.08784,6.21878 -4.08784,6.5 0,0.95351 1.54611,0.51723 4.02749,-1.13649 z M 211.5,172 c -3.86163,-3.95467 -7.5,-5.24903 -7.5,-2.66816 0,1.25512 8.39561,6.59132 10.45295,6.64383 C 214.97707,175.98905 213.64824,174.2 211.5,172 Z m 84.66918,-2.54404 c -0.14928,-2.246 -3.63217,-1.39955 -6.77491,1.64652 -4.85181,4.70256 -4.19429,5.54255 1.72209,2.20001 2.814,-1.58981 5.08777,-3.32074 5.05282,-3.84653 z m -93.51326,-6.00168 c 0.26765,-0.6975 -0.74721,-3.22256 -2.25525,-5.61123 -1.50804,-2.38868 -4.24226,-7.63519 -6.07605,-11.65892 -2.99518,-6.57207 -3.56244,-7.24617 -5.57939,-6.63021 -4.94581,1.51038 -8.74523,3.39683 -8.74523,4.3421 0,1.69358 9.87408,14.40057 14.16601,18.23029 4.07081,3.6324 7.40546,4.154 8.48991,1.32797 z m 106.83877,-4.6596 C 315.3583,152.27293 320,145.60336 320,143.69979 320,142.4805 312.66084,139.5 309.65847,139.5 c -0.46285,0 -1.89725,2.59488 -3.18757,5.76641 -1.29031,3.17152 -3.94912,8.40538 -5.90846,11.63081 -1.95934,3.22542 -3.56244,6.15754 -3.56244,6.51581 0,1.24499 4.50969,2.34557 6.13236,1.49658 0.89779,-0.46973 3.76084,-3.22145 6.36233,-6.11493 z m -93.35545,1.61927 c 0.35996,-0.22247 -0.87412,-5.11846 -2.74239,-10.87998 C 211.52858,143.77245 210,138.3562 210,137.49786 c 0,-0.85835 -0.66977,-1.81764 -1.48838,-2.13177 -1.81567,-0.69674 -11.29325,1.47156 -12.09377,2.76684 -0.69798,1.12934 4.53016,12.53614 8.79955,19.19895 2.97524,4.64315 3.23622,4.8056 6.68177,4.15921 1.97208,-0.36996 3.88011,-0.85468 4.24007,-1.07714 z M 294.37218,158.75 C 297.37418,154.80634 304,141.18004 304,138.94996 c 0,-1.11042 -1.56744,-1.96827 -5.07629,-2.77821 -7.4256,-1.71404 -7.73596,-1.60702 -8.92716,3.07825 -0.59429,2.3375 -2.18664,7.67441 -3.53854,11.8598 -3.00617,9.30686 -3.01306,9.64419 -0.20801,10.18447 4.7462,0.91415 5.72232,0.60839 8.12218,-2.54427 z m -63.49652,-1.30253 c 0.32815,-0.31924 -0.39046,-5.64108 -2.82858,-20.94747 l -0.63715,-4 -5.77559,0.12062 c -3.17657,0.0663 -6.2556,0.60064 -6.84228,1.18732 -1.2061,1.2061 0.7854,10.31495 4.32153,19.7661 l 2.10292,5.62058 4.64175,-0.69085 c 2.55296,-0.37997 4.81079,-0.85531 5.0174,-1.0563 z M 282.68229,149 c 1.75026,-5.225 3.32526,-10.85 3.5,-12.5 0.31442,-2.96898 0.25283,-3.00923 -5.95613,-3.89282 -3.45062,-0.49106 -6.51534,-0.65133 -6.8105,-0.35617 -0.44008,0.44007 -2.86978,15.65287 -3.70215,23.17973 -0.23407,2.11665 2.96046,3.53744 7.28649,3.24073 2.23054,-0.15299 2.843,-1.19542 5.68229,-9.67147 z m -17.7852,5.75 c 1.66893,-4.43032 4.29633,-25.49209 4.83395,-38.75 0.33246,-8.19833 0.98366,-13.78852 1.6582,-14.23469 0.61092,-0.40408 4.7967,-0.74158 9.30174,-0.75 4.50504,-0.008 8.38193,-0.35281 8.6153,-0.76531 0.77875,-1.376481 -1.08527,-22.968527 -2.15549,-24.968242 -1.0031,-1.874306 -1.46068,-1.911371 -9.35274,-0.757585 -14.20281,2.076389 -29.75057,2.641938 -41.29805,1.502215 -6.05,-0.597128 -13.77568,-1.35898 -17.16819,-1.693003 l -6.16819,-0.607315 -0.74228,4.886965 C 212.01308,81.300866 211.63877,87.325 211.58953,92 l -0.0895,8.5 8.49439,0.29439 c 4.67192,0.16192 8.80806,0.61192 9.19142,1 0.38337,0.38809 1.18499,8.13061 1.78138,17.20561 0.98476,14.98477 3.55459,35.37389 4.69497,37.25 0.25073,0.4125 6.74045,0.75 14.42161,0.75 13.56518,0 13.99004,-0.0645 14.81332,-2.25 z m -9.31916,-23 c -0.8075,-1.2375 -1.96812,-6.3 -2.57915,-11.25 -1.68234,-13.62868 -3.28288,-13.34833 -2.85451,0.5 L 250.5,132.5 h -3.89101 c -5.24865,0 -6.43562,-1.96026 -4.82755,-7.97262 1.53703,-5.74679 1.62156,-34.072881 0.11458,-38.395807 -0.60719,-1.741781 -0.82832,-4.265169 -0.49141,-5.607529 0.57957,-2.30918 0.97004,-2.429434 7.24857,-2.23235 5.96872,0.18736 6.84359,0.4867 8.70055,2.976906 1.6282,2.183458 2.07318,4.296955 2.10541,10 0.0225,3.97727 -0.55709,8.647689 -1.28792,10.37871 -1.13386,2.68561 -1.10321,3.58352 0.20892,6.12091 0.84574,1.63548 1.84463,5.96934 2.21976,9.6308 0.37513,3.66146 1.06861,6.89611 1.54107,7.18811 1.43845,0.88901 0.95863,6.17041 -0.7124,7.84144 -2.18681,2.18682 -4.12781,1.96169 -5.85064,-0.67857 z M 252,94 c 0,-4 -0.42857,-7 -1,-7 -0.55,0 -1,1.062193 -1,2.360429 0,1.298236 -0.28617,4.448236 -0.63592,7 C 248.83118,100.2483 248.9932,101 250.36408,101 251.72284,101 252,99.814048 252,94 Z m -31.99164,3.026328 c -1.18796,-0.751051 -1.23886,-1.195833 -0.25,-2.184687 1.84318,-1.843183 1.61315,-12.288425 -0.30569,-13.880925 -2.27049,-1.884337 -0.0625,-2.926816 6.23831,-2.945403 5.5602,-0.0164 7.19557,1.004026 4.79801,2.993825 -2.09297,1.737013 -1.9946,10.774685 0.14299,13.136695 1.52791,1.688325 1.45999,1.868701 -1.0651,2.82874 -3.34936,1.273423 -7.58986,1.296383 -9.55852,0.05175 z M 265,94.5 C 265,93.675 265.39118,93 265.86929,93 266.9566,93 272,81.516755 272,79.041075 c 0,-2.069722 2.25308,-3.264926 4.51702,-2.39617 0.83436,0.320175 3.15907,4.018552 5.16602,8.218615 2.00695,4.200064 4.08194,7.923668 4.61109,8.274677 C 288.27298,94.450843 285.73608,96 281.60765,96 c -4.83254,0 -6.08126,-0.724414 -4.51072,-2.616789 0.82658,-0.995973 0.48635,-1.449696 -1.45184,-1.936153 -3.20258,-0.803796 -5.14992,0.239732 -3.70232,1.983979 C 273.39188,95.177118 272.23572,96 268.33333,96 266.03704,96 265,95.533333 265,94.5 Z m 11,-6.918213 c 0,-1.524412 -1.36169,-3.476282 -2.10478,-3.017026 C 272.43246,85.468794 272.87808,88 274.5,88 c 0.825,0 1.5,-0.188196 1.5,-0.418213 z M 188.62412,134.8403 c 0.82648,-0.64424 0.74612,-2.65876 -0.30351,-7.60828 C 187.53541,123.52941 186.57956,117.125 186.19649,113 l -0.69649,-7.5 -7.4031,-0.2969 c -4.07171,-0.16329 -7.82279,0.12279 -8.33575,0.63575 -2.01768,2.01768 3.16468,25.80325 6.7208,30.84655 1.5012,2.12901 1.66322,2.14471 6.27951,0.60828 2.60619,-0.86742 5.2444,-1.97144 5.86266,-2.45338 z m 137.21073,-2.36037 c 2.63138,-6.87622 5.42116,-20.37915 4.98936,-24.1492 -0.31912,-2.78627 -0.43822,-2.83535 -7.58224,-3.1247 -6.78481,-0.27481 -7.31303,-0.1444 -8.10144,2 -0.46387,1.26168 -0.90766,4.22279 -0.98619,6.58025 -0.0785,2.35745 -0.82002,7.53245 -1.64775,11.5 -0.82772,3.96754 -1.50532,7.73872 -1.50577,8.38039 -8.8e-4,1.25685 7.15244,4.12507 10.6104,4.25438 1.6642,0.0622 2.55849,-1.08984 4.22363,-5.44112 z M 202.5,131.65039 l 5,-1.31103 -0.34837,-9.71413 c -0.1916,-5.34276 -0.67265,-10.93162 -1.06898,-12.41968 -0.6946,-2.60789 -0.99786,-2.71609 -8.40163,-2.99761 L 190,104.91587 v 4.35841 c 0,4.47612 1.37632,13.33909 3.102,19.97572 1.09723,4.21973 1.78726,4.39597 9.398,2.40039 z m 105.13107,-3.34635 c 1.32845,-4.60419 3.16204,-20.42471 2.57227,-22.19401 -0.53918,-1.61756 -15.15732,-1.48663 -15.6272,0.13997 -0.52728,1.82527 -2.36716,23.1906 -2.03078,23.58202 0.64722,0.7531 10.10147,3.01183 11.91484,2.8466 1.38239,-0.12597 2.31707,-1.41547 3.17087,-4.37458 z m -82.90696,-0.97771 c 2.11235,-0.50351 2.22239,-1.01694 2.18978,-10.21666 -0.0189,-5.32758 -0.38501,-10.25393 -0.81363,-10.94744 -0.53669,-0.86839 -2.9306,-1.16774 -7.68978,-0.96158 L 211.5,105.5 l 0.16593,10.30972 c 0.21824,13.56034 0.22625,13.57705 6.09559,12.73033 2.60617,-0.37597 5.73933,-0.92214 6.96259,-1.21372 z m 63.43397,-1.80302 c 0.43461,-1.63718 0.91434,-6.81218 1.06606,-11.5 L 289.5,105.5 h -7.5 -7.5 l -0.28355,10.72253 c -0.27665,10.46152 -0.22797,10.73442 2,11.21106 1.25595,0.2687 3.18355,0.68826 4.28355,0.93236 4.62983,1.02741 6.84944,0.2035 7.65808,-2.84264 z M 186.64656,90 c 0.66249,-5.775 1.90816,-12.75 2.76816,-15.5 0.86,-2.75 1.5685,-5.526335 1.57446,-6.169633 0.013,-1.409516 -9.49808,-4.732798 -11.42685,-3.992658 -3.23026,1.239565 -11.79543,31.00651 -10.15323,35.286003 0.43896,1.143918 2.23942,1.397518 8.29678,1.168628 L 185.44204,100.5 Z m 18.7309,10.19827 c 0.50151,-0.811457 2.90305,-20.639164 3.04532,-25.142905 0.0674,-2.133237 -0.6787,-2.676595 -5.85714,-4.265641 -3.67497,-1.127693 -6.28982,-1.465546 -6.86798,-0.887382 -1.20937,1.209364 -4.45975,14.872659 -5.29559,22.260473 C 189.44272,100.6423 189.7466,101 197.9096,101 c 3.8348,0 7.19534,-0.36078 7.46786,-0.80173 z m 104.95366,-0.61876 c 0.71236,-1.856385 -1.72787,-17.992595 -3.7977,-25.112552 -1.2834,-4.414733 -1.97538,-5.468378 -3.32693,-5.065754 -0.93857,0.279598 -3.84399,1.03213 -6.45649,1.672293 -3.77592,0.925245 -4.75,1.591549 -4.75,3.249147 0,2.799303 2.13979,23.849842 2.58469,25.427356 0.53083,1.88217 15.01894,1.7253 15.74643,-0.17049 z m 20.36846,-0.239021 c 1.62343,-4.230571 -5.68286,-31.421872 -9.23521,-34.370061 -1.06473,-0.883647 -2.57587,-0.761982 -6.42816,0.517545 -5.73958,1.906384 -5.94241,2.568372 -3.52722,11.512027 0.81688,3.025 1.91775,9.225074 2.44638,13.777943 0.52862,4.552868 1.23148,8.715368 1.5619,9.249997 0.33042,0.53463 3.73833,0.97206 7.57313,0.97206 5.57303,0 7.10018,-0.33306 7.60918,-1.659511 z M 247.78116,59.578274 c 0.21032,-9.666016 -0.0416,-13.126556 -1,-13.734687 -2.04665,-1.298703 -8.43225,-0.968923 -9.64999,0.498369 -1.39423,1.679935 -5.26417,23.913543 -4.32305,24.836747 0.86644,0.849937 6.58005,1.581876 11.19188,1.433729 L 247.5,72.5 Z m 20.07128,11.901385 c 0.58563,-0.583579 -1.79206,-16.831127 -3.1554,-21.561921 -1.1451,-3.973478 -1.61004,-4.450288 -4.62345,-4.741417 -1.84269,-0.178023 -4.41307,-0.05695 -5.71196,0.269052 C 252.03316,46.029782 252,46.218025 252,58.852385 c 0,7.047855 0.3375,13.158134 0.75,13.578398 0.69084,0.703842 14.30188,-0.153355 15.10244,-0.951124 z M 228,70.099373 c 0,-0.495345 0.90637,-6.202348 2.01416,-12.682229 2.2213,-12.993198 2.11507,-13.374032 -3.73848,-13.401831 -3.79886,-0.01804 -4.67739,1.355458 -8.74402,13.670387 -3.3059,10.011231 -3.11463,11.61832 1.47969,12.432659 C 224.48418,71.088411 228,71.080985 228,70.099373 Z m 53.32922,-0.03579 c 2.10608,-0.488785 4.06705,-1.126525 4.35773,-1.417199 C 286.31609,68.017244 281.5751,52.988006 279.17402,48 c -1.77417,-3.685648 -4.28892,-4.689946 -8.86665,-3.541008 -1.50739,0.378331 -2.28974,1.14458 -1.98348,1.942674 0.27816,0.724857 1.25284,5.993515 2.16596,11.708128 0.91313,5.714613 1.83734,10.952706 2.0538,11.640206 0.45874,1.456959 3.40578,1.562149 8.78557,0.313586 z M 213.41905,57.25 c 5.31319,-15.426478 5.24453,-14.889995 1.9853,-15.513036 -1.52767,-0.292033 -3.39015,-0.295907 -4.13884,-0.0086 C 208.56746,42.763695 198,60.051396 198,63.429902 c 0,1.318957 6.95861,4.271075 10.60827,4.500446 0.60955,0.03831 2.7744,-4.767848 4.81078,-10.680348 z m 85.38176,8.757294 c 3.77559,-0.975977 4.22081,-1.380145 3.64568,-3.30952 -1.16081,-3.894153 -7.18393,-14.08824 -10.61368,-17.96357 -2.99522,-3.38435 -3.63669,-3.67853 -6.33281,-2.904278 -1.68171,0.48294 -2.9159,1.478599 -2.80862,2.265795 0.1568,1.150508 5.50404,16.759232 7.71699,22.526088 0.33718,0.878668 1.31962,1.301908 2.3367,1.006663 0.96521,-0.280187 3.6903,-1.009717 6.05574,-1.621178 z M 196.11855,56.75 c 1.73104,-3.4375 4.4172,-8.101549 5.96925,-10.364554 3.68947,-5.379537 3.85436,-6.406235 1.19447,-7.437385 -1.85016,-0.717242 -3.12888,-0.027 -7.71503,4.164477 -6.35725,5.810175 -12.91413,14.346782 -12.34078,16.066849 0.37881,1.136409 5.94708,3.586785 8.50914,3.744535 0.67959,0.04184 2.65191,-2.736422 4.38295,-6.173922 z m 117.86121,4.64142 C 316.19089,60.506701 318,59.442388 318,59.026279 318,57.721877 313.9265,52.752412 307.11734,45.75 302.12218,40.613059 299.89006,39 297.77682,39 c -3.60022,0 -3.50052,1.20269 0.61353,7.400764 1.86469,2.809277 4.65843,7.693354 6.20832,10.853506 1.54988,3.160151 3.39012,5.74573 4.08941,5.74573 0.6993,0 3.08055,-0.723861 5.29168,-1.60858 z M 247.79044,32.25 c 0.15975,-4.5375 -0.10801,-8.25 -0.59501,-8.25 -2.41703,0 -8.13106,10.351845 -8.17347,14.807498 -0.02,2.099043 0.36198,2.279719 4.22804,2 L 247.5,40.5 Z m 13.64375,7.856479 C 262.76906,37.946615 255.38737,23 252.98581,23 252.41109,23 252,26.753023 252,32 v 9 h 4.44098 c 2.44254,0 4.68949,-0.402084 4.99321,-0.893521 z M 236.28075,33.25 c 1.37929,-3.7125 2.35947,-6.9084 2.17819,-7.101999 C 237.21689,24.821556 227,35.960177 227,38.640731 227,39.518835 228.19877,40 230.38648,40 c 3.26648,0 3.47533,-0.239169 5.89427,-6.75 z m 37.05609,6.079826 c 1.28123,-1.281229 -5.794,-10.395037 -9.72227,-12.523546 -1.67093,-0.905384 -1.81362,-0.735501 -1.25424,1.493268 0.34716,1.383181 1.51711,4.58163 2.5999,7.107664 C 266.64581,39.339508 267.3415,40 269.7978,40 c 1.57787,0 3.17045,-0.301578 3.53904,-0.670174 z M 224.83155,33.28322 c 1.68752,-2.594229 2.89168,-4.893321 2.67591,-5.109092 C 226.63914,27.305804 216,35.626858 216,37.174314 216,37.628441 217.29675,38 218.88166,38 c 2.33459,0 3.46415,-0.895453 5.94989,-4.71678 z M 284,36.597238 c 0,-1.327185 -10.73114,-9.199436 -11.4967,-8.433866 -0.19834,0.198337 1.18665,2.492716 3.07776,5.09862 C 278.09329,36.723794 279.6902,38 281.50972,38 282.97991,38 284,37.425391 284,36.597238 Z M 212,33.5 c 2.70469,-2.879013 2.13771,-3.139695 -2.08236,-0.957412 -1.64067,0.848423 -2.71676,1.973423 -2.39132,2.5 0.92786,1.501305 1.9429,1.151304 4.47368,-1.542588 z m 81,1.52568 C 293,34.098027 287.90189,31 286.37535,31 c -0.39819,0 0.3329,1.125 1.62465,2.5 2.36945,2.522166 5,3.324841 5,1.52568 z"
         id="path1743"
         inkscape:connector-curvature="0" />
      <path
         style="fill:#03529f"
         d="M 158.67184,228.33851 C 158.30233,227.969 158,227.06667 158,226.33333 158,225.23177 174.17889,225 251.07332,225 c 88.10297,0 93.05533,0.0934 92.73635,1.75 -0.31759,1.64934 -5.63245,1.76468 -92.40148,2.00518 -50.63548,0.14034 -92.36683,-0.0472 -92.73635,-0.41667 z M 158,184.60699 c 0,-0.76616 0.7118,-1.66616 1.58179,-2 C 160.45177,182.27314 173.37986,182 188.31088,182 h 27.1473 l -7.82342,-4.57965 c -15.06071,-8.8162 -29.25291,-24.90918 -35.88268,-40.6885 C 152.33738,90.523463 176.0571,38.358215 224,21.82637 c 9.17048,-3.162197 10.05498,-3.276701 25.5,-3.301097 13.69667,-0.02163 17.12275,0.300134 23.79918,2.235159 23.77029,6.889326 43.86796,24.15211 54.21179,46.564914 C 346.30834,108.05512 330.38193,156.49235 291,178.36673 l -6.5,3.61038 28.16821,0.0114 c 15.49252,0.006 28.88002,0.28459 29.75,0.61844 0.86999,0.33384 1.58179,1.23384 1.58179,2 0,1.18069 -14.17456,1.39301 -93,1.39301 -78.82544,0 -93,-0.21232 -93,-1.39301 z M 247.78498,171.75 247.5,161.5 l -4.38586,-0.31414 c -2.41223,-0.17277 -4.77973,0.0797 -5.26113,0.56113 -1.88168,1.88168 6.1607,20.25301 8.86611,20.25301 1.06514,0 1.29057,-2.16793 1.06586,-10.25 z m 11.05702,3.09704 c 1.8381,-3.65912 3.4131,-8.15912 3.5,-10 L 262.5,161.5 257.25,161.19774 252,160.89548 v 10.62558 c 0,9.57611 0.17285,10.59365 1.75,10.30226 1.0003,-0.18481 3.18171,-3.17344 5.092,-6.97628 z M 237.99747,179.25 c -0.001,-0.4125 -1.26575,-4.34901 -2.80968,-8.7478 -2.9539,-8.41593 -3.95878,-9.30017 -8.57467,-7.54521 l -2.72933,1.03769 1.79854,3.04469 C 228.06875,171.07927 235.91202,180 237.07755,180 c 0.50735,0 0.92131,-0.3375 0.91992,-0.75 z m 28.56285,-2 C 269.83625,174.25311 276,165.71962 276,164.18112 c 0,-0.90854 -6.82424,-2.69021 -7.54468,-1.96977 C 268.06615,162.60052 262,178.91101 262,179.56822 c 0,1.11345 1.82106,0.18772 4.56032,-2.31822 z m -42.80388,-5.72919 c -3.4755,-5.29044 -4.75016,-6.48301 -6.94742,-6.5 -3.78142,-0.0292 -4.4158,1.7044 -1.68669,4.60941 2.53221,2.6954 10.70539,8.36978 12.05555,8.36978 0.45925,0 -1.0804,-2.91564 -3.42144,-6.47919 z m 53.27105,4.83139 c 5.24039,-3.49245 10.98623,-9.72508 9.71174,-10.53453 -3.21333,-2.04082 -5.60233,-0.76084 -9.65139,5.17102 -2.24831,3.29378 -4.08784,6.21878 -4.08784,6.5 0,0.95351 1.54611,0.51723 4.02749,-1.13649 z M 211.5,172 c -3.86163,-3.95467 -7.5,-5.24903 -7.5,-2.66816 0,1.25512 8.39561,6.59132 10.45295,6.64383 C 214.97707,175.98905 213.64824,174.2 211.5,172 Z m 84.66918,-2.54404 c -0.14928,-2.246 -3.63217,-1.39955 -6.77491,1.64652 -4.85181,4.70256 -4.19429,5.54255 1.72209,2.20001 2.814,-1.58981 5.08777,-3.32074 5.05282,-3.84653 z m -93.51326,-6.00168 c 0.26765,-0.6975 -0.74721,-3.22256 -2.25525,-5.61123 -1.50804,-2.38868 -4.24226,-7.63519 -6.07605,-11.65892 -2.99518,-6.57207 -3.56244,-7.24617 -5.57939,-6.63021 -4.94581,1.51038 -8.74523,3.39683 -8.74523,4.3421 0,1.69358 9.87408,14.40057 14.16601,18.23029 4.07081,3.6324 7.40546,4.154 8.48991,1.32797 z m 106.83877,-4.6596 C 315.3583,152.27293 320,145.60336 320,143.69979 320,142.4805 312.66084,139.5 309.65847,139.5 c -0.46285,0 -1.89725,2.59488 -3.18757,5.76641 -1.29031,3.17152 -3.94912,8.40538 -5.90846,11.63081 -1.95934,3.22542 -3.56244,6.15754 -3.56244,6.51581 0,1.24499 4.50969,2.34557 6.13236,1.49658 0.89779,-0.46973 3.76084,-3.22145 6.36233,-6.11493 z m -93.35545,1.61927 c 0.35996,-0.22247 -0.87412,-5.11846 -2.74239,-10.87998 C 211.52858,143.77245 210,138.3562 210,137.49786 c 0,-0.85835 -0.66977,-1.81764 -1.48838,-2.13177 -1.81567,-0.69674 -11.29325,1.47156 -12.09377,2.76684 -0.69798,1.12934 4.53016,12.53614 8.79955,19.19895 2.97524,4.64315 3.23622,4.8056 6.68177,4.15921 1.97208,-0.36996 3.88011,-0.85468 4.24007,-1.07714 z M 294.37218,158.75 C 297.37418,154.80634 304,141.18004 304,138.94996 c 0,-1.11042 -1.56744,-1.96827 -5.07629,-2.77821 -7.4256,-1.71404 -7.73596,-1.60702 -8.92716,3.07825 -0.59429,2.3375 -2.18664,7.67441 -3.53854,11.8598 -3.00617,9.30686 -3.01306,9.64419 -0.20801,10.18447 4.7462,0.91415 5.72232,0.60839 8.12218,-2.54427 z m -63.49652,-1.30253 c 0.32815,-0.31924 -0.39046,-5.64108 -2.82858,-20.94747 l -0.63715,-4 -5.77559,0.12062 c -3.17657,0.0663 -6.2556,0.60064 -6.84228,1.18732 -1.2061,1.2061 0.7854,10.31495 4.32153,19.7661 l 2.10292,5.62058 4.64175,-0.69085 c 2.55296,-0.37997 4.81079,-0.85531 5.0174,-1.0563 z M 282.68229,149 c 1.75026,-5.225 3.32526,-10.85 3.5,-12.5 0.31442,-2.96898 0.25283,-3.00923 -5.95613,-3.89282 -3.45062,-0.49106 -6.51534,-0.65133 -6.8105,-0.35617 -0.44008,0.44007 -2.86978,15.65287 -3.70215,23.17973 -0.23407,2.11665 2.96046,3.53744 7.28649,3.24073 2.23054,-0.15299 2.843,-1.19542 5.68229,-9.67147 z m -17.7852,5.75 c 1.66893,-4.43032 4.29633,-25.49209 4.83395,-38.75 0.33246,-8.19833 0.98366,-13.78852 1.6582,-14.23469 0.61092,-0.40408 4.7967,-0.74158 9.30174,-0.75 4.50504,-0.008 8.38193,-0.35281 8.6153,-0.76531 0.77875,-1.376481 -1.08527,-22.968527 -2.15549,-24.968242 -1.0031,-1.874306 -1.46068,-1.911371 -9.35274,-0.757585 -14.20281,2.076389 -29.75057,2.641938 -41.29805,1.502215 -6.05,-0.597128 -13.77568,-1.35898 -17.16819,-1.693003 l -6.16819,-0.607315 -0.74228,4.886965 C 212.01308,81.300866 211.63877,87.325 211.58953,92 l -0.0895,8.5 8.49439,0.29439 c 4.67192,0.16192 8.80806,0.61192 9.19142,1 0.38337,0.38809 1.18499,8.13061 1.78138,17.20561 0.98476,14.98477 3.55459,35.37389 4.69497,37.25 0.25073,0.4125 6.74045,0.75 14.42161,0.75 13.56518,0 13.99004,-0.0645 14.81332,-2.25 z m -76.27297,-19.9097 c 0.82648,-0.64424 0.74612,-2.65876 -0.30351,-7.60828 C 187.53541,123.52941 186.57956,117.125 186.19649,113 l -0.69649,-7.5 -7.4031,-0.2969 c -4.07171,-0.16329 -7.82279,0.12279 -8.33575,0.63575 -2.01768,2.01768 3.16468,25.80325 6.7208,30.84655 1.5012,2.12901 1.66322,2.14471 6.27951,0.60828 2.60619,-0.86742 5.2444,-1.97144 5.86266,-2.45338 z m 137.21073,-2.36037 c 2.63138,-6.87622 5.42116,-20.37915 4.98936,-24.1492 -0.31912,-2.78627 -0.43822,-2.83535 -7.58224,-3.1247 -6.78481,-0.27481 -7.31303,-0.1444 -8.10144,2 -0.46387,1.26168 -0.90766,4.22279 -0.98619,6.58025 -0.0785,2.35745 -0.82002,7.53245 -1.64775,11.5 -0.82772,3.96754 -1.50532,7.73872 -1.50577,8.38039 -8.8e-4,1.25685 7.15244,4.12507 10.6104,4.25438 1.6642,0.0622 2.55849,-1.08984 4.22363,-5.44112 z M 202.5,131.65039 l 5,-1.31103 -0.34837,-9.71413 c -0.1916,-5.34276 -0.67265,-10.93162 -1.06898,-12.41968 -0.6946,-2.60789 -0.99786,-2.71609 -8.40163,-2.99761 L 190,104.91587 v 4.35841 c 0,4.47612 1.37632,13.33909 3.102,19.97572 1.09723,4.21973 1.78726,4.39597 9.398,2.40039 z m 105.13107,-3.34635 c 1.32845,-4.60419 3.16204,-20.42471 2.57227,-22.19401 -0.53918,-1.61756 -15.15732,-1.48663 -15.6272,0.13997 -0.52728,1.82527 -2.36716,23.1906 -2.03078,23.58202 0.64722,0.7531 10.10147,3.01183 11.91484,2.8466 1.38239,-0.12597 2.31707,-1.41547 3.17087,-4.37458 z m -82.90696,-0.97771 c 2.11235,-0.50351 2.22239,-1.01694 2.18978,-10.21666 -0.0189,-5.32758 -0.38501,-10.25393 -0.81363,-10.94744 -0.53669,-0.86839 -2.9306,-1.16774 -7.68978,-0.96158 L 211.5,105.5 l 0.16593,10.30972 c 0.21824,13.56034 0.22625,13.57705 6.09559,12.73033 2.60617,-0.37597 5.73933,-0.92214 6.96259,-1.21372 z m 63.43397,-1.80302 c 0.43461,-1.63718 0.91434,-6.81218 1.06606,-11.5 L 289.5,105.5 h -7.5 -7.5 l -0.28355,10.72253 c -0.27665,10.46152 -0.22797,10.73442 2,11.21106 1.25595,0.2687 3.18355,0.68826 4.28355,0.93236 4.62983,1.02741 6.84944,0.2035 7.65808,-2.84264 z M 186.64656,90 c 0.66249,-5.775 1.90816,-12.75 2.76816,-15.5 0.86,-2.75 1.5685,-5.526335 1.57446,-6.169633 0.013,-1.409516 -9.49808,-4.732798 -11.42685,-3.992658 -3.23026,1.239565 -11.79543,31.00651 -10.15323,35.286003 0.43896,1.143918 2.23942,1.397518 8.29678,1.168628 L 185.44204,100.5 Z m 18.7309,10.19827 c 0.50151,-0.811457 2.90305,-20.639164 3.04532,-25.142905 0.0674,-2.133237 -0.6787,-2.676595 -5.85714,-4.265641 -3.67497,-1.127693 -6.28982,-1.465546 -6.86798,-0.887382 -1.20937,1.209364 -4.45975,14.872659 -5.29559,22.260473 C 189.44272,100.6423 189.7466,101 197.9096,101 c 3.8348,0 7.19534,-0.36078 7.46786,-0.80173 z m 104.95366,-0.61876 c 0.71236,-1.856385 -1.72787,-17.992595 -3.7977,-25.112552 -1.2834,-4.414733 -1.97538,-5.468378 -3.32693,-5.065754 -0.93857,0.279598 -3.84399,1.03213 -6.45649,1.672293 -3.77592,0.925245 -4.75,1.591549 -4.75,3.249147 0,2.799303 2.13979,23.849842 2.58469,25.427356 0.53083,1.88217 15.01894,1.7253 15.74643,-0.17049 z m 20.36846,-0.239021 c 1.62343,-4.230571 -5.68286,-31.421872 -9.23521,-34.370061 -1.06473,-0.883647 -2.57587,-0.761982 -6.42816,0.517545 -5.73958,1.906384 -5.94241,2.568372 -3.52722,11.512027 0.81688,3.025 1.91775,9.225074 2.44638,13.777943 0.52862,4.552868 1.23148,8.715368 1.5619,9.249997 0.33042,0.53463 3.73833,0.97206 7.57313,0.97206 5.57303,0 7.10018,-0.33306 7.60918,-1.659511 z M 247.78116,59.578274 c 0.21032,-9.666016 -0.0416,-13.126556 -1,-13.734687 -2.04665,-1.298703 -8.43225,-0.968923 -9.64999,0.498369 -1.39423,1.679935 -5.26417,23.913543 -4.32305,24.836747 0.86644,0.849937 6.58005,1.581876 11.19188,1.433729 L 247.5,72.5 Z m 20.07128,11.901385 c 0.58563,-0.583579 -1.79206,-16.831127 -3.1554,-21.561921 -1.1451,-3.973478 -1.61004,-4.450288 -4.62345,-4.741417 -1.84269,-0.178023 -4.41307,-0.05695 -5.71196,0.269052 C 252.03316,46.029782 252,46.218025 252,58.852385 c 0,7.047855 0.3375,13.158134 0.75,13.578398 0.69084,0.703842 14.30188,-0.153355 15.10244,-0.951124 z M 228,70.099373 c 0,-0.495345 0.90637,-6.202348 2.01416,-12.682229 2.2213,-12.993198 2.11507,-13.374032 -3.73848,-13.401831 -3.79886,-0.01804 -4.67739,1.355458 -8.74402,13.670387 -3.3059,10.011231 -3.11463,11.61832 1.47969,12.432659 C 224.48418,71.088411 228,71.080985 228,70.099373 Z m 53.32922,-0.03579 c 2.10608,-0.488785 4.06705,-1.126525 4.35773,-1.417199 C 286.31609,68.017244 281.5751,52.988006 279.17402,48 c -1.77417,-3.685648 -4.28892,-4.689946 -8.86665,-3.541008 -1.50739,0.378331 -2.28974,1.14458 -1.98348,1.942674 0.27816,0.724857 1.25284,5.993515 2.16596,11.708128 0.91313,5.714613 1.83734,10.952706 2.0538,11.640206 0.45874,1.456959 3.40578,1.562149 8.78557,0.313586 z M 213.41905,57.25 c 5.31319,-15.426478 5.24453,-14.889995 1.9853,-15.513036 -1.52767,-0.292033 -3.39015,-0.295907 -4.13884,-0.0086 C 208.56746,42.763695 198,60.051396 198,63.429902 c 0,1.318957 6.95861,4.271075 10.60827,4.500446 0.60955,0.03831 2.7744,-4.767848 4.81078,-10.680348 z m 85.38176,8.757294 c 3.77559,-0.975977 4.22081,-1.380145 3.64568,-3.30952 -1.16081,-3.894153 -7.18393,-14.08824 -10.61368,-17.96357 -2.99522,-3.38435 -3.63669,-3.67853 -6.33281,-2.904278 -1.68171,0.48294 -2.9159,1.478599 -2.80862,2.265795 0.1568,1.150508 5.50404,16.759232 7.71699,22.526088 0.33718,0.878668 1.31962,1.301908 2.3367,1.006663 0.96521,-0.280187 3.6903,-1.009717 6.05574,-1.621178 z M 196.11855,56.75 c 1.73104,-3.4375 4.4172,-8.101549 5.96925,-10.364554 3.68947,-5.379537 3.85436,-6.406235 1.19447,-7.437385 -1.85016,-0.717242 -3.12888,-0.027 -7.71503,4.164477 -6.35725,5.810175 -12.91413,14.346782 -12.34078,16.066849 0.37881,1.136409 5.94708,3.586785 8.50914,3.744535 0.67959,0.04184 2.65191,-2.736422 4.38295,-6.173922 z m 117.86121,4.64142 C 316.19089,60.506701 318,59.442388 318,59.026279 318,57.721877 313.9265,52.752412 307.11734,45.75 302.12218,40.613059 299.89006,39 297.77682,39 c -3.60022,0 -3.50052,1.20269 0.61353,7.400764 1.86469,2.809277 4.65843,7.693354 6.20832,10.853506 1.54988,3.160151 3.39012,5.74573 4.08941,5.74573 0.6993,0 3.08055,-0.723861 5.29168,-1.60858 z M 247.79044,32.25 c 0.15975,-4.5375 -0.10801,-8.25 -0.59501,-8.25 -2.41703,0 -8.13106,10.351845 -8.17347,14.807498 -0.02,2.099043 0.36198,2.279719 4.22804,2 L 247.5,40.5 Z m 13.64375,7.856479 C 262.76906,37.946615 255.38737,23 252.98581,23 252.41109,23 252,26.753023 252,32 v 9 h 4.44098 c 2.44254,0 4.68949,-0.402084 4.99321,-0.893521 z M 236.28075,33.25 c 1.37929,-3.7125 2.35947,-6.9084 2.17819,-7.101999 C 237.21689,24.821556 227,35.960177 227,38.640731 227,39.518835 228.19877,40 230.38648,40 c 3.26648,0 3.47533,-0.239169 5.89427,-6.75 z m 37.05609,6.079826 c 1.28123,-1.281229 -5.794,-10.395037 -9.72227,-12.523546 -1.67093,-0.905384 -1.81362,-0.735501 -1.25424,1.493268 0.34716,1.383181 1.51711,4.58163 2.5999,7.107664 C 266.64581,39.339508 267.3415,40 269.7978,40 c 1.57787,0 3.17045,-0.301578 3.53904,-0.670174 z M 224.83155,33.28322 c 1.68752,-2.594229 2.89168,-4.893321 2.67591,-5.109092 C 226.63914,27.305804 216,35.626858 216,37.174314 216,37.628441 217.29675,38 218.88166,38 c 2.33459,0 3.46415,-0.895453 5.94989,-4.71678 z M 284,36.597238 c 0,-1.327185 -10.73114,-9.199436 -11.4967,-8.433866 -0.19834,0.198337 1.18665,2.492716 3.07776,5.09862 C 278.09329,36.723794 279.6902,38 281.50972,38 282.97991,38 284,37.425391 284,36.597238 Z M 212,33.5 c 2.70469,-2.879013 2.13771,-3.139695 -2.08236,-0.957412 -1.64067,0.848423 -2.71676,1.973423 -2.39132,2.5 0.92786,1.501305 1.9429,1.151304 4.47368,-1.542588 z m 81,1.52568 C 293,34.098027 287.90189,31 286.37535,31 c -0.39819,0 0.3329,1.125 1.62465,2.5 2.36945,2.522166 5,3.324841 5,1.52568 z"
         id="path1741"
         inkscape:connector-curvature="0" />
    </g>
  </g>
</svg>
